<?xml version="1.0" encoding="UTF-8" standalone="no" ?>
<svg version="1.1" viewBox="0 0 118.74 118.74" xml:space="preserve" xmlns="http://www.w3.org/2000/svg" xmlns:svg="http://www.w3.org/2000/svg">
	<path fill="#ffd100" d="M 118.74,64.391084 V 54.358978 H 64.386051 v -8.206262 h 8.687804 c 5.838685,0 10.573839,-4.735154 10.573839,-10.573838 V 20.791555 c 0,-5.838686 -4.735154,-10.57384 -10.573839,-10.57384 H 45.666143 c -5.838686,0 -10.573839,4.735154 -10.573839,10.57384 v 14.787323 c 0,5.838684 4.735153,10.573838 10.573839,10.573838 h 8.687804 v 8.206262 H 0 v 10.032106 h 25.842703 v 8.186198 H 17.1549 c -5.838685,0 -10.5738389,4.735154 -10.5738389,10.573839 v 14.787322 c 0,5.838687 4.7351539,10.573837 10.5738389,10.573837 h 27.427775 c 5.838686,0 10.57384,-4.73515 10.57384,-10.573837 V 83.151121 c 0,-5.838685 -4.735154,-10.573839 -10.57384,-10.573839 h -8.687802 v -8.186198 h 48.876416 v 8.186198 h -8.687802 c -5.838686,0 -10.57384,4.735154 -10.57384,10.573839 v 14.787322 c 0,5.838687 4.735154,10.573837 10.57384,10.573837 H 103.4912 c 5.83868,0 10.57384,-4.73515 10.57384,-10.573837 V 83.151121 c 0,-5.838685 -4.73516,-10.573839 -10.57384,-10.573839 H 94.803394 V 64.391084 Z M 45.144473,35.598942 V 20.811619 c 0,-0.300963 0.240772,-0.541734 0.541734,-0.541734 h 27.387648 c 0.300963,0 0.541734,0.240771 0.541734,0.541734 v 14.787323 c 0,0.300963 -0.240771,0.541734 -0.541734,0.541734 H 45.666143 c -0.300964,0 -0.52167,-0.240771 -0.52167,-0.541734 z m -0.04012,47.552179 v 14.787322 c 0,0.300964 -0.240771,0.541734 -0.541734,0.541734 H 17.174964 c -0.300963,0 -0.541734,-0.24077 -0.541734,-0.541734 V 83.151121 c 0,-0.300964 0.240771,-0.541734 0.541734,-0.541734 h 27.407711 c 0.2809,0.02006 0.52167,0.24077 0.52167,0.541734 z m 58.928587,0 v 14.787322 c 0,0.300964 -0.24077,0.541734 -0.54174,0.541734 H 76.083487 c -0.300964,0 -0.541734,-0.24077 -0.541734,-0.541734 V 83.151121 c 0,-0.300964 0.24077,-0.541734 0.541734,-0.541734 H 103.4912 c 0.30096,0.02006 0.54173,0.24077 0.54173,0.541734 z" id="path2" style="stroke-width:2.00642" />
</svg>
