<svg xmlns="http://www.w3.org/2000/svg" viewBox="0 0 814 1000" width="24" height="28"><path fill="#ffd100" d="M788.1 340.9c-5.8 4.5-108.2 62.2-108.2 190.5 0 148.4 130.3 200.9 134.2 202.2-.6 3.2-20.7 71.9-68.7 141.9-42.8 61.6-87.5 123.1-155.5 123.1s-85.5-39.5-164-39.5c-76.5 0-103.7 40.8-165.9 40.8s-105.6-57.4-155.5-127.4c-58.1-81.6-105-208.6-105-328.8 0-193.7 125.8-296.7 249.6-296.7 65.8 0 120.7 43.2 162 43.2 39.4 0 100.8-45.8 175.3-45.8 28.3 0 130 2.5 197.3 96.3zm-272-180.3c31.3-36.9 53.4-88.1 53.4-139.3 0-7.1-.6-14.3-1.9-20.1-50.9 1.9-110.6 33.9-146.9 76.4-26.4 30.1-53.4 81.6-53.4 133.5 0 7.8.6 15.6 1.3 18.1 2.5.6 6.4.6 10.2.6 46.1-.1 103-30.5 137.3-69.2z"/></svg>
